<svg role="img" aria-labelledby="title" viewBox="0 0 1023 1023" xmlns="http://www.w3.org/2000/svg">
  <title id="title">SHEIN</title>
  <path fill="#000000" fill-rule="evenodd" clip-rule="evenodd" d="M 83.00 73.00 L 31.00 144.00 L 8.00 232.00 L 9.00 802.00 L 31.00 879.00 L 73.00 940.00 L 153.00 996.00 L 233.00 1015.00 L 802.00 1014.00 L 879.00 992.00 L 940.00 950.00 L 992.00 879.00 L 1015.00 791.00 L 1014.00 221.00 L 992.00 144.00 L 950.00 83.00 L 879.00 31.00 L 791.00 8.00 L 221.00 9.00 L 153.00 27.00 Z M 495.00 223.00 L 561.00 225.00 L 610.00 234.00 L 659.00 254.00 L 690.00 279.00 L 633.00 331.00 L 595.00 312.00 L 540.00 298.00 L 502.00 296.00 L 454.00 308.00 L 427.00 325.00 L 411.00 346.00 L 404.00 371.00 L 411.00 405.00 L 452.00 440.00 L 590.00 499.00 L 650.00 532.00 L 699.00 581.00 L 716.00 633.00 L 706.00 700.00 L 670.00 751.00 L 606.00 789.00 L 526.00 806.00 L 470.00 804.00 L 411.00 792.00 L 356.00 772.00 L 296.00 740.00 L 354.00 680.00 L 441.00 716.00 L 523.00 727.00 L 578.00 713.00 L 613.00 677.00 L 618.00 631.00 L 596.00 597.00 L 558.00 574.00 L 434.00 528.00 L 375.00 498.00 L 333.00 460.00 L 312.00 419.00 L 309.00 352.00 L 319.00 321.00 L 339.00 290.00 L 399.00 246.00 L 451.00 229.00 Z"/>
</svg>
